<svg xmlns="http://www.w3.org/2000/svg" version="1.1" xmlns:xlink="http://www.w3.org/1999/xlink" xmlns:svgjs="http://svgjs.com/svgjs" width="1440" height="560" preserveAspectRatio="none" viewBox="0 0 1440 560"><g mask="url(&quot;#SvgjsMask1018&quot;)" fill="none"><path d="M860.636416501073 274.14158975356224L761.8517416738342 277.5912266125215 765.3013785327935 376.37590143976024 864.0860533600322 372.926264580801z" fill="rgba(28, 83, 142, 0.4)" class="triangle-float3"></path><path d="M1297.581,785.341C1352.837,784.828,1399.932,746.44,1424.499,696.944C1446.573,652.472,1433.054,602.731,1410.061,558.727C1384.638,510.072,1352.363,457.586,1297.581,454.043C1238.311,450.21,1184.715,489.959,1156.724,542.344C1130.239,591.911,1138.326,650.72,1166.51,699.341C1194.597,747.796,1241.576,785.861,1297.581,785.341" fill="rgba(28, 83, 142, 0.4)" class="triangle-float2"></path><path d="M319.82520659487477 86.107831341399L462.18556303310964 106.1152746637585 482.19300635546915-36.24508177447636 339.8326499172343-56.25252509683587z" fill="rgba(28, 83, 142, 0.4)" class="triangle-float3"></path><path d="M1142.6288495052383 88.1790082335317L1307.3712071585112 21.801336699793424 1186.7108534921897-75.90749113885644z" fill="rgba(28, 83, 142, 0.4)" class="triangle-float1"></path><path d="M664.365588430351 536.4367495258865L720.1717213025801 422.0172209142703 549.9460598187347 480.63061665365734z" fill="rgba(28, 83, 142, 0.4)" class="triangle-float2"></path><path d="M97.91914772912928-4.238183435156024L160.89027058570562 79.32731906328624 244.4557730841479 16.35619620670991 181.48465022757154-67.20930629173236z" fill="rgba(28, 83, 142, 0.4)" class="triangle-float3"></path><path d="M395.2645357969187 199.91421846067445L340.5441756793066 57.362806702176215 197.99276392080836 112.08316681978835 252.7131240384205 254.63457857828658z" fill="rgba(28, 83, 142, 0.4)" class="triangle-float3"></path><path d="M846.1612961155364 377.80304182481063L911.5659862601616 284.3954639631785 752.7537182539043 312.39835168018544z" fill="rgba(28, 83, 142, 0.4)" class="triangle-float3"></path><path d="M430.7129291804804 130.7443650891621L499.4121552819523 42.81336550244265 342.78192959376094 62.045138987690166z" fill="rgba(28, 83, 142, 0.4)" class="triangle-float2"></path><path d="M1425.13372399963 520.2740845477945L1463.496676746914 444.98255046377716 1388.2051426628968 406.6195977164932 1349.8421899156128 481.9111318005105z" fill="rgba(28, 83, 142, 0.4)" class="triangle-float2"></path><path d="M401.7492550336624 557.4679390541661L531.4012740710273 609.9945412961345 516.4985752494993 488.62179938184073z" fill="rgba(28, 83, 142, 0.4)" class="triangle-float1"></path><path d="M630.708,161.183C662.124,161.134,694.963,152.935,711.358,126.136C728.361,98.344,724.239,63.194,707.902,35.005C691.615,6.904,663.185,-13.439,630.708,-13.018C598.866,-12.606,572.914,9.434,556.903,36.961C540.786,64.67,533.25,98.829,549.623,126.387C565.725,153.488,599.184,161.232,630.708,161.183" fill="rgba(28, 83, 142, 0.4)" class="triangle-float3"></path><path d="M1362.322029527239 160.6159477473671L1259.43596135312 278.97283011806064 1377.7928437238136 381.8588982921797 1480.6789118979325 263.50201592148613z" fill="rgba(28, 83, 142, 0.4)" class="triangle-float2"></path><path d="M1362.223,681.258C1416.395,680.655,1469.992,659.944,1497.879,613.498C1526.538,565.766,1526.766,504.38,1496.471,457.669C1468.389,414.37,1413.81,402.85,1362.223,404.337C1313.725,405.735,1267.589,424.626,1240.742,465.04C1210.538,510.508,1194.493,568.99,1221.231,616.579C1248.377,664.894,1306.807,681.875,1362.223,681.258" fill="rgba(28, 83, 142, 0.4)" class="triangle-float3"></path><path d="M1063.1311807111165 519.9906370554403L1119.454528644156 399.5047494031512 1003.4742686741351 407.61487923123434z" fill="rgba(28, 83, 142, 0.4)" class="triangle-float3"></path><path d="M90.16646782002289 385.7856717085262L142.2948743313903 327.89121105889797 29.38898010126421 278.6458316166609z" fill="rgba(28, 83, 142, 0.4)" class="triangle-float3"></path><path d="M1200.973394301212 476.7767267891859L1181.0704327451276 374.38486598612957 1037.4341223185854 455.43523872178423z" fill="rgba(28, 83, 142, 0.4)" class="triangle-float1"></path><path d="M1146.353,634.873C1185.973,636.089,1218.812,607.045,1238.026,572.374C1256.601,538.856,1259.493,498.374,1240.415,465.139C1221.258,431.766,1184.833,412.699,1146.353,412.671C1107.823,412.643,1070.199,431.013,1052.051,465.002C1034.766,497.375,1046.124,534.944,1063.936,567.03C1082.447,600.375,1108.233,633.703,1146.353,634.873" fill="rgba(28, 83, 142, 0.4)" class="triangle-float2"></path><path d="M1293.1184278455364-26.987704531472424L1326.0612063010205 95.9564184068798 1449.0053292393727 63.01363995139567 1416.0625507838886-59.930482986956555z" fill="rgba(28, 83, 142, 0.4)" class="triangle-float1"></path><path d="M1005.837,269.379C1042.673,271.695,1083.232,267.297,1103.832,236.672C1126.417,203.095,1123.673,158.782,1104.026,123.406C1083.773,86.939,1047.551,60.156,1005.837,60.226C964.23,60.296,926.108,86.17,908.217,123.734C892.308,157.137,906.492,194.827,927.091,225.56C945.017,252.304,973.704,267.359,1005.837,269.379" fill="rgba(28, 83, 142, 0.4)" class="triangle-float3"></path></g><defs><mask id="SvgjsMask1018"><rect width="1440" height="560" fill="#ffffff"></rect></mask><style>
            @keyframes float1 {
                0%{transform: translate(0, 0)}
                50%{transform: translate(-10px, 0)}
                100%{transform: translate(0, 0)}
            }

            .triangle-float1 {
                animation: float1 5s infinite;
            }

            @keyframes float2 {
                0%{transform: translate(0, 0)}
                50%{transform: translate(-5px, -5px)}
                100%{transform: translate(0, 0)}
            }

            .triangle-float2 {
                animation: float2 4s infinite;
            }

            @keyframes float3 {
                0%{transform: translate(0, 0)}
                50%{transform: translate(0, -10px)}
                100%{transform: translate(0, 0)}
            }

            .triangle-float3 {
                animation: float3 6s infinite;
            }
        </style></defs></svg>